<mxfile host="app.diagrams.net" agent="Mozilla/5.0 (Windows NT 10.0; Win64; x64) AppleWebKit/537.36 (KHTML, like Gecko) Chrome/135.0.0.0 Safari/537.36 OPR/120.0.0.0" version="28.2.5">
  <diagram name="PÃ¡gina-1" id="td6sfuPvNvqUmSfPSUWA">
    <mxGraphModel dx="1162" dy="1831" grid="1" gridSize="10" guides="1" tooltips="1" connect="1" arrows="1" fold="1" page="1" pageScale="1" pageWidth="827" pageHeight="1169" math="0" shadow="0">
      <root>
        <mxCell id="0" />
        <mxCell id="1" parent="0" />
        <mxCell id="lkOVniHZD0TdwBNZnYF0-94" value="" style="rounded=0;whiteSpace=wrap;html=1;fillColor=light-dark(#FFFFFF, #1b1d1e);" vertex="1" parent="1">
          <mxGeometry x="30" y="-150" width="1150" height="570" as="geometry" />
        </mxCell>
        <mxCell id="lkOVniHZD0TdwBNZnYF0-1" value="&lt;u&gt;Airport_code (PK)&lt;/u&gt;" style="rounded=0;whiteSpace=wrap;html=1;" vertex="1" parent="1">
          <mxGeometry x="80" y="40" width="100" height="40" as="geometry" />
        </mxCell>
        <mxCell id="lkOVniHZD0TdwBNZnYF0-3" value="&lt;font style=&quot;font-size: 14px;&quot;&gt;Airport&lt;/font&gt;" style="text;strokeColor=none;fillColor=none;html=1;fontSize=24;fontStyle=1;verticalAlign=middle;align=center;" vertex="1" parent="1">
          <mxGeometry x="50" y="10" width="110" height="30" as="geometry" />
        </mxCell>
        <mxCell id="lkOVniHZD0TdwBNZnYF0-6" value="City" style="rounded=0;whiteSpace=wrap;html=1;" vertex="1" parent="1">
          <mxGeometry x="180" y="40" width="60" height="40" as="geometry" />
        </mxCell>
        <mxCell id="lkOVniHZD0TdwBNZnYF0-9" value="State" style="rounded=0;whiteSpace=wrap;html=1;" vertex="1" parent="1">
          <mxGeometry x="240" y="40" width="60" height="40" as="geometry" />
        </mxCell>
        <mxCell id="lkOVniHZD0TdwBNZnYF0-10" value="Name" style="rounded=0;whiteSpace=wrap;html=1;" vertex="1" parent="1">
          <mxGeometry x="300" y="40" width="60" height="40" as="geometry" />
        </mxCell>
        <mxCell id="lkOVniHZD0TdwBNZnYF0-11" value="&lt;u&gt;Type_name (PK)&lt;/u&gt;" style="rounded=0;whiteSpace=wrap;html=1;" vertex="1" parent="1">
          <mxGeometry x="80" y="140" width="100" height="40" as="geometry" />
        </mxCell>
        <mxCell id="lkOVniHZD0TdwBNZnYF0-12" value="&lt;font style=&quot;font-size: 14px;&quot;&gt;Airplane_type&lt;/font&gt;" style="text;strokeColor=none;fillColor=none;html=1;fontSize=24;fontStyle=1;verticalAlign=middle;align=center;" vertex="1" parent="1">
          <mxGeometry x="80" y="110" width="100" height="30" as="geometry" />
        </mxCell>
        <mxCell id="lkOVniHZD0TdwBNZnYF0-14" value="Company" style="rounded=0;whiteSpace=wrap;html=1;" vertex="1" parent="1">
          <mxGeometry x="180" y="140" width="70" height="40" as="geometry" />
        </mxCell>
        <mxCell id="lkOVniHZD0TdwBNZnYF0-15" value="Max_seats" style="rounded=0;whiteSpace=wrap;html=1;" vertex="1" parent="1">
          <mxGeometry x="250" y="140" width="80" height="40" as="geometry" />
        </mxCell>
        <mxCell id="lkOVniHZD0TdwBNZnYF0-16" value="&lt;u&gt;Airplane_id (PK)&lt;/u&gt;" style="rounded=0;whiteSpace=wrap;html=1;" vertex="1" parent="1">
          <mxGeometry x="80" y="240" width="100" height="40" as="geometry" />
        </mxCell>
        <mxCell id="lkOVniHZD0TdwBNZnYF0-17" value="&lt;font style=&quot;font-size: 14px;&quot;&gt;Airplane&lt;/font&gt;" style="text;strokeColor=none;fillColor=none;html=1;fontSize=24;fontStyle=1;verticalAlign=middle;align=center;" vertex="1" parent="1">
          <mxGeometry x="60" y="210" width="100" height="30" as="geometry" />
        </mxCell>
        <mxCell id="lkOVniHZD0TdwBNZnYF0-18" value="Total_no_of_seats" style="rounded=0;whiteSpace=wrap;html=1;" vertex="1" parent="1">
          <mxGeometry x="180" y="240" width="110" height="40" as="geometry" />
        </mxCell>
        <mxCell id="lkOVniHZD0TdwBNZnYF0-22" style="edgeStyle=orthogonalEdgeStyle;rounded=0;orthogonalLoop=1;jettySize=auto;html=1;exitX=0.5;exitY=0;exitDx=0;exitDy=0;entryX=0.5;entryY=1;entryDx=0;entryDy=0;" edge="1" parent="1" source="lkOVniHZD0TdwBNZnYF0-19" target="lkOVniHZD0TdwBNZnYF0-11">
          <mxGeometry relative="1" as="geometry" />
        </mxCell>
        <mxCell id="lkOVniHZD0TdwBNZnYF0-19" value="Type_name (FK)" style="rounded=0;whiteSpace=wrap;html=1;" vertex="1" parent="1">
          <mxGeometry x="290" y="240" width="120" height="40" as="geometry" />
        </mxCell>
        <mxCell id="lkOVniHZD0TdwBNZnYF0-23" value="&lt;font style=&quot;font-size: 14px;&quot;&gt;Flight&lt;/font&gt;" style="text;strokeColor=none;fillColor=none;html=1;fontSize=24;fontStyle=1;verticalAlign=middle;align=center;" vertex="1" parent="1">
          <mxGeometry x="450" y="15" width="100" height="25" as="geometry" />
        </mxCell>
        <mxCell id="lkOVniHZD0TdwBNZnYF0-24" value="&lt;u&gt;Number (PK)&lt;/u&gt;" style="rounded=0;whiteSpace=wrap;html=1;" vertex="1" parent="1">
          <mxGeometry x="480" y="40" width="90" height="40" as="geometry" />
        </mxCell>
        <mxCell id="lkOVniHZD0TdwBNZnYF0-25" value="Airline" style="rounded=0;whiteSpace=wrap;html=1;" vertex="1" parent="1">
          <mxGeometry x="570" y="40" width="60" height="40" as="geometry" />
        </mxCell>
        <mxCell id="lkOVniHZD0TdwBNZnYF0-26" value="Weekdays" style="rounded=0;whiteSpace=wrap;html=1;" vertex="1" parent="1">
          <mxGeometry x="630" y="40" width="70" height="40" as="geometry" />
        </mxCell>
        <mxCell id="lkOVniHZD0TdwBNZnYF0-28" value="&lt;font style=&quot;font-size: 14px;&quot;&gt;Fare&lt;/font&gt;" style="text;strokeColor=none;fillColor=none;html=1;fontSize=24;fontStyle=1;verticalAlign=middle;align=center;" vertex="1" parent="1">
          <mxGeometry x="450" y="115" width="100" height="25" as="geometry" />
        </mxCell>
        <mxCell id="lkOVniHZD0TdwBNZnYF0-30" value="&lt;u&gt;Code (PK)&lt;/u&gt;" style="rounded=0;whiteSpace=wrap;html=1;" vertex="1" parent="1">
          <mxGeometry x="610" y="140" width="70" height="40" as="geometry" />
        </mxCell>
        <mxCell id="lkOVniHZD0TdwBNZnYF0-37" style="edgeStyle=orthogonalEdgeStyle;rounded=0;orthogonalLoop=1;jettySize=auto;html=1;exitX=0.75;exitY=0;exitDx=0;exitDy=0;entryX=0.5;entryY=1;entryDx=0;entryDy=0;" edge="1" parent="1" source="lkOVniHZD0TdwBNZnYF0-31" target="lkOVniHZD0TdwBNZnYF0-24">
          <mxGeometry relative="1" as="geometry" />
        </mxCell>
        <mxCell id="lkOVniHZD0TdwBNZnYF0-31" value="&lt;u&gt;Flight_number (PK)(FK)&lt;/u&gt;" style="rounded=0;whiteSpace=wrap;html=1;" vertex="1" parent="1">
          <mxGeometry x="480" y="140" width="130" height="40" as="geometry" />
        </mxCell>
        <mxCell id="lkOVniHZD0TdwBNZnYF0-35" value="Amount" style="rounded=0;whiteSpace=wrap;html=1;" vertex="1" parent="1">
          <mxGeometry x="680" y="140" width="60" height="40" as="geometry" />
        </mxCell>
        <mxCell id="lkOVniHZD0TdwBNZnYF0-36" value="Restrictions" style="rounded=0;whiteSpace=wrap;html=1;" vertex="1" parent="1">
          <mxGeometry x="740" y="140" width="80" height="40" as="geometry" />
        </mxCell>
        <mxCell id="lkOVniHZD0TdwBNZnYF0-38" value="&lt;font style=&quot;font-size: 14px;&quot;&gt;Flight_Leg&lt;/font&gt;" style="text;strokeColor=none;fillColor=none;html=1;fontSize=24;fontStyle=1;verticalAlign=middle;align=center;" vertex="1" parent="1">
          <mxGeometry x="470" y="215" width="100" height="20" as="geometry" />
        </mxCell>
        <mxCell id="lkOVniHZD0TdwBNZnYF0-42" style="edgeStyle=orthogonalEdgeStyle;rounded=0;orthogonalLoop=1;jettySize=auto;html=1;exitX=0;exitY=0.5;exitDx=0;exitDy=0;entryX=0;entryY=0.5;entryDx=0;entryDy=0;" edge="1" parent="1" source="lkOVniHZD0TdwBNZnYF0-40" target="lkOVniHZD0TdwBNZnYF0-24">
          <mxGeometry relative="1" as="geometry" />
        </mxCell>
        <mxCell id="lkOVniHZD0TdwBNZnYF0-40" value="&lt;u&gt;Flight_number (PK)(FK)&lt;/u&gt;" style="rounded=0;whiteSpace=wrap;html=1;" vertex="1" parent="1">
          <mxGeometry x="480" y="240" width="130" height="40" as="geometry" />
        </mxCell>
        <mxCell id="lkOVniHZD0TdwBNZnYF0-43" value="&lt;u&gt;Leg_no (PK)&lt;/u&gt;" style="rounded=0;whiteSpace=wrap;html=1;" vertex="1" parent="1">
          <mxGeometry x="610" y="240" width="80" height="40" as="geometry" />
        </mxCell>
        <mxCell id="lkOVniHZD0TdwBNZnYF0-46" style="edgeStyle=orthogonalEdgeStyle;rounded=0;orthogonalLoop=1;jettySize=auto;html=1;exitX=0.5;exitY=0;exitDx=0;exitDy=0;entryX=0.75;entryY=1;entryDx=0;entryDy=0;" edge="1" parent="1" source="lkOVniHZD0TdwBNZnYF0-44" target="lkOVniHZD0TdwBNZnYF0-1">
          <mxGeometry relative="1" as="geometry">
            <mxPoint x="160" y="90" as="targetPoint" />
            <Array as="points">
              <mxPoint x="755" y="196" />
              <mxPoint x="360" y="196" />
              <mxPoint x="360" y="100" />
              <mxPoint x="160" y="100" />
              <mxPoint x="160" y="80" />
            </Array>
          </mxGeometry>
        </mxCell>
        <mxCell id="lkOVniHZD0TdwBNZnYF0-44" value="Dep_airportCode (FK)" style="rounded=0;whiteSpace=wrap;html=1;" vertex="1" parent="1">
          <mxGeometry x="690" y="240" width="130" height="40" as="geometry" />
        </mxCell>
        <mxCell id="lkOVniHZD0TdwBNZnYF0-47" style="edgeStyle=orthogonalEdgeStyle;rounded=0;orthogonalLoop=1;jettySize=auto;html=1;" edge="1" parent="1">
          <mxGeometry relative="1" as="geometry">
            <mxPoint x="120" y="80" as="targetPoint" />
            <mxPoint x="850" y="210" as="sourcePoint" />
            <Array as="points">
              <mxPoint x="620" y="210" />
              <mxPoint x="430" y="210" />
              <mxPoint x="430" y="110" />
              <mxPoint x="120" y="110" />
            </Array>
          </mxGeometry>
        </mxCell>
        <mxCell id="lkOVniHZD0TdwBNZnYF0-45" value="Arr_airportCode (FK)" style="rounded=0;whiteSpace=wrap;html=1;" vertex="1" parent="1">
          <mxGeometry x="820" y="240" width="120" height="40" as="geometry" />
        </mxCell>
        <mxCell id="lkOVniHZD0TdwBNZnYF0-51" value="" style="endArrow=none;html=1;rounded=0;exitX=0.25;exitY=0;exitDx=0;exitDy=0;" edge="1" parent="1" source="lkOVniHZD0TdwBNZnYF0-45">
          <mxGeometry width="50" height="50" relative="1" as="geometry">
            <mxPoint x="850" y="230" as="sourcePoint" />
            <mxPoint x="850" y="210" as="targetPoint" />
          </mxGeometry>
        </mxCell>
        <mxCell id="lkOVniHZD0TdwBNZnYF0-52" value="Sched_dep_time" style="rounded=0;whiteSpace=wrap;html=1;" vertex="1" parent="1">
          <mxGeometry x="940" y="240" width="100" height="40" as="geometry" />
        </mxCell>
        <mxCell id="lkOVniHZD0TdwBNZnYF0-53" value="Sched_arr_time" style="rounded=0;whiteSpace=wrap;html=1;" vertex="1" parent="1">
          <mxGeometry x="1040" y="240" width="100" height="40" as="geometry" />
        </mxCell>
        <mxCell id="lkOVniHZD0TdwBNZnYF0-56" value="&lt;font style=&quot;font-size: 14px;&quot;&gt;Leg_Instance&lt;/font&gt;" style="text;strokeColor=none;fillColor=none;html=1;fontSize=24;fontStyle=1;verticalAlign=middle;align=center;" vertex="1" parent="1">
          <mxGeometry x="80" y="-90" width="100" height="30" as="geometry" />
        </mxCell>
        <mxCell id="lkOVniHZD0TdwBNZnYF0-66" style="edgeStyle=orthogonalEdgeStyle;rounded=0;orthogonalLoop=1;jettySize=auto;html=1;exitX=0.75;exitY=1;exitDx=0;exitDy=0;entryX=0;entryY=0.25;entryDx=0;entryDy=0;" edge="1" parent="1" source="lkOVniHZD0TdwBNZnYF0-57" target="lkOVniHZD0TdwBNZnYF0-24">
          <mxGeometry relative="1" as="geometry">
            <Array as="points">
              <mxPoint x="178" y="30" />
              <mxPoint x="410" y="30" />
              <mxPoint x="410" y="50" />
            </Array>
          </mxGeometry>
        </mxCell>
        <mxCell id="lkOVniHZD0TdwBNZnYF0-57" value="&lt;u&gt;FlightNumber (PK)(FK)&lt;/u&gt;" style="rounded=0;whiteSpace=wrap;html=1;" vertex="1" parent="1">
          <mxGeometry x="80" y="-60" width="130" height="40" as="geometry" />
        </mxCell>
        <mxCell id="lkOVniHZD0TdwBNZnYF0-67" style="edgeStyle=orthogonalEdgeStyle;rounded=0;orthogonalLoop=1;jettySize=auto;html=1;exitX=0.75;exitY=1;exitDx=0;exitDy=0;entryX=0.5;entryY=1;entryDx=0;entryDy=0;" edge="1" parent="1" source="lkOVniHZD0TdwBNZnYF0-58" target="lkOVniHZD0TdwBNZnYF0-43">
          <mxGeometry relative="1" as="geometry">
            <mxPoint x="660" y="320" as="targetPoint" />
            <Array as="points">
              <mxPoint x="285" />
              <mxPoint x="440" />
              <mxPoint x="440" y="300" />
              <mxPoint x="650" y="300" />
            </Array>
          </mxGeometry>
        </mxCell>
        <mxCell id="lkOVniHZD0TdwBNZnYF0-58" value="&lt;u&gt;Leg_no (PK)(FK)&lt;/u&gt;" style="rounded=0;whiteSpace=wrap;html=1;" vertex="1" parent="1">
          <mxGeometry x="210" y="-60" width="100" height="40" as="geometry" />
        </mxCell>
        <mxCell id="lkOVniHZD0TdwBNZnYF0-59" value="&lt;u&gt;Date(PK)&lt;/u&gt;" style="rounded=0;whiteSpace=wrap;html=1;" vertex="1" parent="1">
          <mxGeometry x="310" y="-60" width="60" height="40" as="geometry" />
        </mxCell>
        <mxCell id="lkOVniHZD0TdwBNZnYF0-60" value="NoOfAvailSeats" style="rounded=0;whiteSpace=wrap;html=1;" vertex="1" parent="1">
          <mxGeometry x="370" y="-60" width="100" height="40" as="geometry" />
        </mxCell>
        <mxCell id="lkOVniHZD0TdwBNZnYF0-68" style="edgeStyle=orthogonalEdgeStyle;rounded=0;orthogonalLoop=1;jettySize=auto;html=1;exitX=0.25;exitY=0;exitDx=0;exitDy=0;entryX=0.25;entryY=1;entryDx=0;entryDy=0;" edge="1" parent="1" source="lkOVniHZD0TdwBNZnYF0-61" target="lkOVniHZD0TdwBNZnYF0-16">
          <mxGeometry relative="1" as="geometry">
            <Array as="points">
              <mxPoint x="505" y="-90" />
              <mxPoint x="70" y="-90" />
              <mxPoint x="70" y="300" />
              <mxPoint x="105" y="300" />
            </Array>
          </mxGeometry>
        </mxCell>
        <mxCell id="lkOVniHZD0TdwBNZnYF0-61" value="Airplane_AirplaneId (FK)" style="rounded=0;whiteSpace=wrap;html=1;" vertex="1" parent="1">
          <mxGeometry x="470" y="-60" width="140" height="40" as="geometry" />
        </mxCell>
        <mxCell id="lkOVniHZD0TdwBNZnYF0-69" style="edgeStyle=orthogonalEdgeStyle;rounded=0;orthogonalLoop=1;jettySize=auto;html=1;exitX=0.25;exitY=1;exitDx=0;exitDy=0;entryX=0.5;entryY=0;entryDx=0;entryDy=0;" edge="1" parent="1" source="lkOVniHZD0TdwBNZnYF0-62" target="lkOVniHZD0TdwBNZnYF0-1">
          <mxGeometry relative="1" as="geometry" />
        </mxCell>
        <mxCell id="lkOVniHZD0TdwBNZnYF0-62" value="DEP_AirportCode(FK)" style="rounded=0;whiteSpace=wrap;html=1;" vertex="1" parent="1">
          <mxGeometry x="610" y="-60" width="130" height="40" as="geometry" />
        </mxCell>
        <mxCell id="lkOVniHZD0TdwBNZnYF0-70" style="edgeStyle=orthogonalEdgeStyle;rounded=0;orthogonalLoop=1;jettySize=auto;html=1;exitX=0.5;exitY=1;exitDx=0;exitDy=0;entryX=0.75;entryY=0;entryDx=0;entryDy=0;" edge="1" parent="1" source="lkOVniHZD0TdwBNZnYF0-63" target="lkOVniHZD0TdwBNZnYF0-1">
          <mxGeometry relative="1" as="geometry">
            <Array as="points">
              <mxPoint x="875" y="20" />
              <mxPoint x="155" y="20" />
            </Array>
          </mxGeometry>
        </mxCell>
        <mxCell id="lkOVniHZD0TdwBNZnYF0-63" value="ARR_AirportCode(FK)" style="rounded=0;whiteSpace=wrap;html=1;" vertex="1" parent="1">
          <mxGeometry x="810" y="-60" width="130" height="40" as="geometry" />
        </mxCell>
        <mxCell id="lkOVniHZD0TdwBNZnYF0-64" value="DepTime" style="rounded=0;whiteSpace=wrap;html=1;" vertex="1" parent="1">
          <mxGeometry x="740" y="-60" width="70" height="40" as="geometry" />
        </mxCell>
        <mxCell id="lkOVniHZD0TdwBNZnYF0-65" value="ArrTime" style="rounded=0;whiteSpace=wrap;html=1;" vertex="1" parent="1">
          <mxGeometry x="940" y="-60" width="60" height="40" as="geometry" />
        </mxCell>
        <mxCell id="lkOVniHZD0TdwBNZnYF0-71" value="&lt;font style=&quot;font-size: 14px;&quot;&gt;Seat&lt;/font&gt;" style="text;strokeColor=none;fillColor=none;html=1;fontSize=24;fontStyle=1;verticalAlign=middle;align=center;" vertex="1" parent="1">
          <mxGeometry x="80" y="320" width="45" height="30" as="geometry" />
        </mxCell>
        <mxCell id="lkOVniHZD0TdwBNZnYF0-79" style="edgeStyle=orthogonalEdgeStyle;rounded=0;orthogonalLoop=1;jettySize=auto;html=1;exitX=0.75;exitY=0;exitDx=0;exitDy=0;entryX=0;entryY=0.75;entryDx=0;entryDy=0;" edge="1" parent="1" source="lkOVniHZD0TdwBNZnYF0-73" target="lkOVniHZD0TdwBNZnYF0-24">
          <mxGeometry relative="1" as="geometry">
            <Array as="points">
              <mxPoint x="178" y="370" />
              <mxPoint x="50" y="370" />
              <mxPoint x="50" y="120" />
              <mxPoint x="370" y="120" />
              <mxPoint x="370" y="70" />
            </Array>
          </mxGeometry>
        </mxCell>
        <mxCell id="lkOVniHZD0TdwBNZnYF0-73" value="&lt;u&gt;FlightNumber (PK)(FK)&lt;/u&gt;" style="rounded=0;whiteSpace=wrap;html=1;" vertex="1" parent="1">
          <mxGeometry x="80" y="350" width="130" height="40" as="geometry" />
        </mxCell>
        <mxCell id="lkOVniHZD0TdwBNZnYF0-80" style="edgeStyle=orthogonalEdgeStyle;rounded=0;orthogonalLoop=1;jettySize=auto;html=1;exitX=0.75;exitY=0;exitDx=0;exitDy=0;entryX=0.25;entryY=1;entryDx=0;entryDy=0;" edge="1" parent="1" source="lkOVniHZD0TdwBNZnYF0-74" target="lkOVniHZD0TdwBNZnYF0-43">
          <mxGeometry relative="1" as="geometry" />
        </mxCell>
        <mxCell id="lkOVniHZD0TdwBNZnYF0-74" value="&lt;u&gt;Leg_no (PK)(FK)&lt;/u&gt;" style="rounded=0;whiteSpace=wrap;html=1;" vertex="1" parent="1">
          <mxGeometry x="210" y="350" width="100" height="40" as="geometry" />
        </mxCell>
        <mxCell id="lkOVniHZD0TdwBNZnYF0-81" style="edgeStyle=orthogonalEdgeStyle;rounded=0;orthogonalLoop=1;jettySize=auto;html=1;exitX=0.75;exitY=0;exitDx=0;exitDy=0;" edge="1" parent="1" source="lkOVniHZD0TdwBNZnYF0-75" target="lkOVniHZD0TdwBNZnYF0-59">
          <mxGeometry relative="1" as="geometry">
            <mxPoint x="420" y="230" as="targetPoint" />
            <Array as="points">
              <mxPoint x="370" y="340" />
              <mxPoint x="420" y="340" />
              <mxPoint x="420" y="165" />
              <mxPoint x="400" y="165" />
              <mxPoint x="400" y="-10" />
              <mxPoint x="340" y="-10" />
            </Array>
          </mxGeometry>
        </mxCell>
        <mxCell id="lkOVniHZD0TdwBNZnYF0-75" value="&lt;u&gt;Date(PK)(FK)&lt;/u&gt;" style="rounded=0;whiteSpace=wrap;html=1;" vertex="1" parent="1">
          <mxGeometry x="310" y="350" width="80" height="40" as="geometry" />
        </mxCell>
        <mxCell id="lkOVniHZD0TdwBNZnYF0-76" value="&lt;u&gt;SeatNo(PK)&lt;/u&gt;" style="rounded=0;whiteSpace=wrap;html=1;" vertex="1" parent="1">
          <mxGeometry x="390" y="350" width="70" height="40" as="geometry" />
        </mxCell>
        <mxCell id="lkOVniHZD0TdwBNZnYF0-77" value="Costumer_name" style="rounded=0;whiteSpace=wrap;html=1;" vertex="1" parent="1">
          <mxGeometry x="460" y="350" width="100" height="40" as="geometry" />
        </mxCell>
        <mxCell id="lkOVniHZD0TdwBNZnYF0-78" value="Cphone" style="rounded=0;whiteSpace=wrap;html=1;" vertex="1" parent="1">
          <mxGeometry x="560" y="350" width="60" height="40" as="geometry" />
        </mxCell>
        <mxCell id="lkOVniHZD0TdwBNZnYF0-86" style="edgeStyle=orthogonalEdgeStyle;rounded=0;orthogonalLoop=1;jettySize=auto;html=1;exitX=0;exitY=0.25;exitDx=0;exitDy=0;entryX=0;entryY=0.5;entryDx=0;entryDy=0;" edge="1" parent="1" source="lkOVniHZD0TdwBNZnYF0-83" target="lkOVniHZD0TdwBNZnYF0-1">
          <mxGeometry relative="1" as="geometry">
            <mxPoint x="50" y="60" as="targetPoint" />
          </mxGeometry>
        </mxCell>
        <mxCell id="lkOVniHZD0TdwBNZnYF0-83" value="&lt;u&gt;Airport_code (PK)&lt;/u&gt;" style="rounded=0;whiteSpace=wrap;html=1;" vertex="1" parent="1">
          <mxGeometry x="640" y="-120" width="100" height="40" as="geometry" />
        </mxCell>
        <mxCell id="lkOVniHZD0TdwBNZnYF0-87" style="edgeStyle=orthogonalEdgeStyle;rounded=0;orthogonalLoop=1;jettySize=auto;html=1;exitX=0.25;exitY=1;exitDx=0;exitDy=0;entryX=0;entryY=0.25;entryDx=0;entryDy=0;" edge="1" parent="1" target="lkOVniHZD0TdwBNZnYF0-11">
          <mxGeometry relative="1" as="geometry">
            <mxPoint x="70" y="160" as="targetPoint" />
            <mxPoint x="755" y="-80" as="sourcePoint" />
            <Array as="points">
              <mxPoint x="755" y="-70" />
              <mxPoint x="540" y="-70" />
              <mxPoint x="540" y="-120" />
              <mxPoint x="40" y="-120" />
              <mxPoint x="40" y="150" />
            </Array>
          </mxGeometry>
        </mxCell>
        <mxCell id="lkOVniHZD0TdwBNZnYF0-84" value="&lt;u&gt;Type_name (PK)&lt;/u&gt;" style="rounded=0;whiteSpace=wrap;html=1;" vertex="1" parent="1">
          <mxGeometry x="740" y="-120" width="100" height="40" as="geometry" />
        </mxCell>
        <mxCell id="lkOVniHZD0TdwBNZnYF0-85" value="&lt;font style=&quot;font-size: 14px;&quot;&gt;Can_Land&lt;/font&gt;" style="text;strokeColor=none;fillColor=none;html=1;fontSize=24;fontStyle=1;verticalAlign=middle;align=center;" vertex="1" parent="1">
          <mxGeometry x="637.5" y="-160" width="75" height="40" as="geometry" />
        </mxCell>
      </root>
    </mxGraphModel>
  </diagram>
</mxfile>
